C:\Users\israe\Dropbox\PhDWork\Simulation\code\PassiveMoments\Data/emgFiles.mot
nRows=13
nColumns=40

name C:\Users\israe\Dropbox\PhDWork\Simulation\code\PassiveMoments\Data/emgFiles.mot
datacolumns 40
datarows 13
range 1.1600000000 1.2800000000
endheader
time	addbrev	addlong	addmagDist	addmagIsch	addmagMid	addmagProx	bflh	bfsh	edl	ehl	fdl	fhl	gaslat	gasmed	glmax1	glmax2	glmax3	glmed1	glmed2	glmed3	glmin1	glmin2	glmin3	grac	iliacus	perbrev	perlong	psoas	recfem	sart	semimem	semiten	soleus	tfl	tibant	tibpost	vasint	vaslat	vasmed
        1.1600000000	        0.0081065501	        0.0081065501	        0.0000000000	        0.0000000000	        0.0000000000	        0.0000000000	        0.0000000000	        0.0000000000	        0.0000000000	        0.0000000000	        0.4115128560	        0.6800211304	        0.5359410853	        0.5359410853	        0.0000000000	        0.0000000000	        0.0000000000	        0.0000000000	        0.0000000000	        0.0000000000	        0.0000000000	        0.0000000000	        0.0000000000	        0.0000000000	        0.0000000000	        0.2599004178	        0.3979834513	        0.0000000000	        0.0000000000	        0.0000000000	        0.0000000000	        0.0000000000	        0.7703721862	        0.0000000000	        0.0000000000	        0.3704088164	        0.0000000000	        0.0000000000	        0.0000000000	
        1.1700000000	        0.0303606621	        0.0303606621	        0.0000000000	        0.0000000000	        0.0000000000	        0.0000000000	        0.0000000000	        0.0000000000	        0.0000000000	        0.0000000000	        0.4175498217	        0.7022817605	        0.4743713596	        0.4743713596	        0.0000000000	        0.0000000000	        0.0000000000	        0.0000000000	        0.0000000000	        0.0000000000	        0.0000000000	        0.0000000000	        0.0000000000	        0.0000000000	        0.0000000000	        0.2466578824	        0.4131878124	        0.0000000000	        0.0000000000	        0.0000000000	        0.0000000000	        0.0000000000	        0.7111091036	        0.0000000000	        0.0000000000	        0.3726012854	        0.0000000000	        0.0000000000	        0.0000000000	
        1.1800000000	        0.0610629036	        0.0610629036	        0.0000000000	        0.0000000000	        0.0000000000	        0.0000000000	        0.0000000000	        0.0000000000	        0.0000000000	        0.0000000000	        0.4188364685	        0.7287486889	        0.4071845761	        0.4071845761	        0.0000000000	        0.0000000000	        0.0000000000	        0.0000000000	        0.0000000000	        0.0000000000	        0.0000000000	        0.0000000000	        0.0000000000	        0.0000000000	        0.0000000000	        0.2274664226	        0.4184369164	        0.0000000000	        0.0000000000	        0.0000000000	        0.0000000000	        0.0000000000	        0.6400726942	        0.0000000000	        0.0000000000	        0.3601732605	        0.0000000000	        0.0000000000	        0.0000000000	
        1.1900000000	        0.1006848875	        0.1006848875	        0.0000000000	        0.0000000000	        0.0000000000	        0.0000000000	        0.0000000000	        0.0000000000	        0.0000000000	        0.0000000000	        0.4169480906	        0.7408242844	        0.3332195598	        0.3332195598	        0.0000000000	        0.0000000000	        0.0000000000	        0.0000000000	        0.0000000000	        0.0000000000	        0.0000000000	        0.0000000000	        0.0000000000	        0.0000000000	        0.0000000000	        0.2044762572	        0.4176138187	        0.0000000000	        0.0000000000	        0.0000000000	        0.0000000000	        0.0000000000	        0.5590222406	        0.0000000000	        0.0000000000	        0.3320039502	        0.0000000000	        0.0000000000	        0.0000000000	
        1.2000000000	        0.1523384455	        0.1523384455	        0.0000000000	        0.0000000000	        0.0000000000	        0.0000000000	        0.0000000000	        0.0000000000	        0.0000000000	        0.0000000000	        0.4093947421	        0.7376379548	        0.2524294007	        0.2524294007	        0.0000000000	        0.0000000000	        0.0000000000	        0.0000000000	        0.0000000000	        0.0000000000	        0.0000000000	        0.0000000000	        0.0000000000	        0.0000000000	        0.0000000000	        0.1782328038	        0.4113186945	        0.0000000000	        0.0000000000	        0.0000000000	        0.0000000000	        0.0000000000	        0.4668459022	        0.0000000000	        0.0000000000	        0.2925274159	        0.0000000000	        0.0000000000	        0.0000000000	
        1.2100000000	        0.2090441814	        0.2090441814	        0.0000000000	        0.0000000000	        0.0000000000	        0.0000000000	        0.0000000000	        0.0000000000	        0.0000000000	        0.0000000000	        0.3931226067	        0.7090120322	        0.1727744405	        0.1727744405	        0.0000000000	        0.0000000000	        0.0000000000	        0.0000000000	        0.0000000000	        0.0000000000	        0.0000000000	        0.0000000000	        0.0000000000	        0.0000000000	        0.0000000000	        0.1464144085	        0.3968757316	        0.0000000000	        0.0000000000	        0.0000000000	        0.0000000000	        0.0000000000	        0.3646471748	        0.0000000000	        0.0000000000	        0.2434228988	        0.0000000000	        0.0000000000	        0.0000000000	
        1.2200000000	        0.2534048225	        0.2534048225	        0.0000000000	        0.0000000000	        0.0000000000	        0.0000000000	        0.0000000000	        0.0000000000	        0.0000000000	        0.0000000000	        0.3602551802	        0.6598962543	        0.1069556903	        0.1069556903	        0.0000000000	        0.0000000000	        0.0000000000	        0.0000000000	        0.0000000000	        0.0000000000	        0.0000000000	        0.0000000000	        0.0000000000	        0.0000000000	        0.0000000000	        0.1075018111	        0.3733528551	        0.0000000000	        0.0000000000	        0.0000000000	        0.0000000000	        0.0000000000	        0.2614701650	        0.0000000000	        0.0000000000	        0.1867481506	        0.0000000000	        0.0000000000	        0.0000000000	
        1.2300000000	        0.2840346476	        0.2840346476	        0.0000000000	        0.0000000000	        0.0000000000	        0.0000000000	        0.0000000000	        0.0000000000	        0.0000000000	        0.0000000000	        0.3115959085	        0.5885932653	        0.0554749406	        0.0554749406	        0.0000000000	        0.0000000000	        0.0000000000	        0.0000000000	        0.0000000000	        0.0000000000	        0.0000000000	        0.0000000000	        0.0000000000	        0.0000000000	        0.0000000000	        0.0725456513	        0.3344406990	        0.0000000000	        0.0000000000	        0.0000000000	        0.0000000000	        0.0000000000	        0.1740558740	        0.0000000000	        0.0000000000	        0.1329763100	        0.0000000000	        0.0000000000	        0.0000000000	
        1.2400000000	        0.3121066369	        0.3121066369	        0.0000000000	        0.0000000000	        0.0000000000	        0.0000000000	        0.0000000000	        0.0000000000	        0.0000000000	        0.0000000000	        0.2542325303	        0.4861420669	        0.0209832082	        0.0209832082	        0.0000000000	        0.0000000000	        0.0000000000	        0.0000000000	        0.0000000000	        0.0000000000	        0.0000000000	        0.0000000000	        0.0000000000	        0.0000000000	        0.0000000000	        0.0436366349	        0.2939013629	        0.0000000000	        0.0000000000	        0.0000000000	        0.0000000000	        0.0000000000	        0.1027256187	        0.0000000000	        0.0000000000	        0.0888111626	        0.0000000000	        0.0000000000	        0.0000000000	
        1.2500000000	        0.3267362684	        0.3267362684	        0.0000000000	        0.0000000000	        0.0000000000	        0.0000000000	        0.0000000000	        0.0000000000	        0.0000000000	        0.0000000000	        0.1887848458	        0.3663309515	        0.0027835411	        0.0027835411	        0.0000000000	        0.0000000000	        0.0000000000	        0.0000000000	        0.0000000000	        0.0000000000	        0.0000000000	        0.0000000000	        0.0000000000	        0.0000000000	        0.0000000000	        0.0200904916	        0.2492890112	        0.0000000000	        0.0000000000	        0.0000000000	        0.0000000000	        0.0000000000	        0.0479522998	        0.0000000000	        0.0000000000	        0.0509795492	        0.0000000000	        0.0000000000	        0.0000000000	
        1.2600000000	        0.3242838539	        0.3242838539	        0.0000000000	        0.0000000000	        0.0000000000	        0.0000000000	        0.0000000000	        0.0000000000	        0.0000000000	        0.0000000000	        0.1273602284	        0.2536732914	       -0.0000720807	       -0.0000720807	        0.0000000000	        0.0000000000	        0.0000000000	        0.0000000000	        0.0000000000	        0.0000000000	        0.0000000000	        0.0000000000	        0.0000000000	        0.0000000000	        0.0000000000	        0.0042952976	        0.1975885741	        0.0000000000	        0.0000000000	        0.0000000000	        0.0000000000	        0.0000000000	        0.0142562507	        0.0000000000	        0.0000000000	        0.0201550268	        0.0000000000	        0.0000000000	        0.0000000000	
        1.2700000000	        0.3060420635	        0.3060420635	        0.0000000000	        0.0000000000	        0.0000000000	        0.0000000000	        0.0000000000	        0.0000000000	        0.0014499988	        0.0000000000	        0.0775467058	        0.1609927654	        0.0000000000	        0.0000000000	        0.0000000000	        0.0000000000	        0.0000000000	        0.0000000000	        0.0000000000	        0.0000000000	        0.0000000000	        0.0000000000	        0.0000000000	        0.0000000000	        0.0000000000	       -0.0002325157	        0.1425201809	        0.0000000000	        0.0000000000	        0.0000000000	        0.0000000000	        0.0000000000	        0.0018719045	        0.0000000000	        0.0003021763	        0.0038694822	        0.0000000000	        0.0000000000	        0.0000000000	
        1.2800000000	        0.2790477358	        0.2790477358	        0.0000000000	        0.0000000000	        0.0000000000	        0.0000000000	        0.0000000000	        0.0000000000	        0.0126090903	        0.0000000000	        0.0408697258	        0.0889063745	        0.0000000000	        0.0000000000	        0.0000000000	        0.0000000000	        0.0000000000	        0.0000000000	        0.0000000000	        0.0000000000	        0.0000000000	        0.0000000000	        0.0000000000	        0.0000000000	        0.0000000000	        0.0000000000	        0.0942554910	        0.0000000000	        0.0000534964	        0.0000000000	        0.0000000000	        0.0000000000	        0.0000000000	        0.0000000000	        0.0033820011	        0.0000000000	        0.0000000000	        0.0000000000	        0.0000000000	
